<?xml version="1.0" encoding="iso-8859-1"?>
<!-- Generator: Adobe Illustrator 19.0.0, SVG Export Plug-In . SVG Version: 6.00 Build 0)  -->
<svg version="1.1" id="Capa_1" xmlns="http://www.w3.org/2000/svg" xmlns:xlink="http://www.w3.org/1999/xlink" x="0px" y="0px"
	 viewBox="0 0 422.088 422.088" style="enable-background:new 0 0 422.088 422.088;" xml:space="preserve">
<path style="fill:#FCAD3A;" d="M375.467,241.764c0-90.487-71.827-163.84-160.427-163.84S54.613,151.277,54.613,241.764H375.467z"/>
<path d="M375.467,248.591H54.613c-3.772,0-6.827-3.058-6.827-6.827c0-94.106,75.025-170.667,167.253-170.667
	s167.253,76.561,167.253,170.667C382.293,245.532,379.242,248.591,375.467,248.591z M61.58,234.937H368.5
	c-3.512-83.422-71.001-150.187-153.46-150.187S65.096,151.516,61.58,234.937z"/>
<path style="fill:#FEDA38;" d="M320.853,241.764c0-60.324-47.374-109.227-105.813-109.227S109.227,181.44,109.227,241.764H320.853z"
	/>
<path d="M320.853,248.591H109.227c-3.772,0-6.827-3.058-6.827-6.827c0-63.993,50.534-116.053,112.64-116.053
	s112.64,52.06,112.64,116.053C327.68,245.532,324.628,248.591,320.853,248.591z M116.275,234.937h197.533
	c-3.407-53.289-46.408-95.573-98.768-95.573S119.682,181.648,116.275,234.937z"/>
<path d="M51.674,178.621c-0.7,0-1.406-0.109-2.106-0.338l-38.96-12.657c-3.587-1.167-5.553-5.018-4.386-8.605
	c1.167-3.584,5.021-5.543,8.602-4.383l38.96,12.657c3.587,1.167,5.553,5.018,4.386,8.605
	C57.228,176.784,54.555,178.621,51.674,178.621z M376.303,172.129c-2.881,0-5.553-1.836-6.492-4.721
	c-1.167-3.587,0.799-7.438,4.386-8.605l38.953-12.657c3.581-1.164,7.434,0.799,8.602,4.383c1.167,3.587-0.799,7.438-4.386,8.605
	l-38.956,12.657C377.709,172.016,377.003,172.129,376.303,172.129z M111.968,92.045c-2.113,0-4.195-0.976-5.526-2.813L82.367,56.096
	c-2.219-3.052-1.539-7.322,1.505-9.537c3.055-2.212,7.322-1.539,9.533,1.509l24.074,33.137c2.219,3.052,1.539,7.322-1.505,9.537
	C114.763,91.622,113.353,92.045,111.968,92.045z M312.59,88.031c-1.393,0-2.792-0.423-4.007-1.304
	c-3.048-2.215-3.727-6.485-1.505-9.537l24.074-33.137c2.212-3.052,6.472-3.727,9.533-1.509c3.048,2.215,3.727,6.485,1.505,9.537
	l-24.074,33.137C316.781,87.055,314.703,88.031,312.59,88.031z M211.627,57.444c-3.772,0-6.827-3.058-6.827-6.827V9.657
	c0-3.768,3.055-6.827,6.827-6.827s6.827,3.058,6.827,6.827v40.96C218.453,54.386,215.402,57.444,211.627,57.444z"/>
<path style="fill:#2A8EE6;" d="M395.947,269.071H47.787c-7.54,0-13.653-6.113-13.653-13.653s6.113-13.653,13.653-13.653h348.16
	c7.54,0,13.653,6.113,13.653,13.653S403.487,269.071,395.947,269.071z"/>
<path d="M395.947,275.897H47.787c-11.295,0-20.48-9.185-20.48-20.48c0-11.295,9.185-20.48,20.48-20.48h348.16
	c11.295,0,20.48,9.185,20.48,20.48C416.427,266.712,407.241,275.897,395.947,275.897z M47.787,248.591
	c-3.768,0-6.827,3.062-6.827,6.827c0,3.765,3.058,6.827,6.827,6.827h348.16c3.768,0,6.827-3.062,6.827-6.827
	c0-3.765-3.058-6.827-6.827-6.827H47.787z"/>
<path style="fill:#2A8EE6;" d="M150.187,316.857H20.48c-7.54,0-13.653-6.113-13.653-13.653c0-7.54,6.113-13.653,13.653-13.653
	h129.707c7.54,0,13.653,6.113,13.653,13.653C163.84,310.744,157.727,316.857,150.187,316.857z"/>
<path d="M150.187,323.684H20.48c-11.295,0-20.48-9.185-20.48-20.48s9.185-20.48,20.48-20.48h129.707
	c11.295,0,20.48,9.185,20.48,20.48S161.481,323.684,150.187,323.684z M20.48,296.377c-3.768,0-6.827,3.062-6.827,6.827
	s3.058,6.827,6.827,6.827h129.707c3.768,0,6.827-3.062,6.827-6.827s-3.058-6.827-6.827-6.827H20.48z"/>
<path style="fill:#2A8EE6;" d="M252.587,412.431H122.88c-7.54,0-13.653-6.113-13.653-13.653c0-7.54,6.113-13.653,13.653-13.653
	h129.707c7.54,0,13.653,6.113,13.653,13.653C266.24,406.317,260.127,412.431,252.587,412.431z"/>
<path d="M252.587,419.257H122.88c-11.295,0-20.48-9.185-20.48-20.48s9.185-20.48,20.48-20.48h129.707
	c11.295,0,20.48,9.185,20.48,20.48S263.881,419.257,252.587,419.257z M122.88,391.951c-3.768,0-6.827,3.062-6.827,6.827
	s3.058,6.827,6.827,6.827h129.707c3.768,0,6.827-3.062,6.827-6.827s-3.058-6.827-6.827-6.827H122.88z"/>
<path style="fill:#26BBEC;" d="M348.16,357.817H218.453c-7.54,0-13.653-6.113-13.653-13.653c0-7.54,6.113-13.653,13.653-13.653
	H348.16c7.54,0,13.653,6.113,13.653,13.653C361.813,351.704,355.7,357.817,348.16,357.817z"/>
<path d="M348.16,364.644H218.453c-11.295,0-20.48-9.185-20.48-20.48c0-11.295,9.185-20.48,20.48-20.48H348.16
	c11.295,0,20.48,9.185,20.48,20.48C368.64,355.459,359.455,364.644,348.16,364.644z M218.453,337.337
	c-3.768,0-6.827,3.062-6.827,6.827c0,3.765,3.058,6.827,6.827,6.827H348.16c3.768,0,6.827-3.062,6.827-6.827
	c0-3.765-3.058-6.827-6.827-6.827H218.453z"/>
<g>
</g>
<g>
</g>
<g>
</g>
<g>
</g>
<g>
</g>
<g>
</g>
<g>
</g>
<g>
</g>
<g>
</g>
<g>
</g>
<g>
</g>
<g>
</g>
<g>
</g>
<g>
</g>
<g>
</g>
</svg>
