<?xml version="1.0" encoding="iso-8859-1"?>
<!-- Generator: Adobe Illustrator 19.0.0, SVG Export Plug-In . SVG Version: 6.00 Build 0)  -->
<svg version="1.1" id="Layer_1" xmlns="http://www.w3.org/2000/svg" xmlns:xlink="http://www.w3.org/1999/xlink" x="0px" y="0px"
	 viewBox="0 0 512.001 512.001" style="enable-background:new 0 0 512.001 512.001;" xml:space="preserve">
<path style="fill:#66686D;" d="M504.396,473.611c-31.052,0-31.052,28.388-62.103,28.388s-31.052-28.388-62.103-28.388
	c-31.051,0-31.051,28.388-62.1,28.388s-31.05-28.388-62.098-28.388c-31.047,0-31.047,28.388-62.095,28.388
	c-31.048,0-31.048-28.388-62.098-28.388s-31.05,28.388-62.099,28.388c-31.047,0-31.047-28.388-62.096-28.388V364.055
	c31.047,0,31.047,28.388,62.096,28.388c31.049,0,31.049-28.388,62.099-28.388c31.048,0,31.048,28.388,62.098,28.388
	c31.047,0,31.047-28.388,62.095-28.388c31.05,0,31.05,28.388,62.098,28.388c31.051,0,31.051-28.388,62.1-28.388
	c31.052,0,31.052,28.388,62.103,28.388s31.052-28.388,62.103-28.388"/>
<path style="fill:#EA3D3D;" d="M294.53,81.246v37.665h87.192v42.582H294.53v37.665h87.192v42.582H294.53v36.54
	c33.336,14.792,56.594,48.179,56.594,86.999c0,4.005-0.243,7.949-0.73,11.822c-1.267,1.156-2.525,2.312-3.802,3.457
	c-7.006,6.245-14.671,11.882-28.51,11.882c-31.044,0-31.044-28.388-62.089-28.388c-31.055,0-31.055,28.388-62.099,28.388
	c-16.354,0-24.089-7.868-32.291-15.33c-0.487-3.873-0.73-7.827-0.73-11.832c0-38.821,23.258-72.207,56.604-86.999V10.002h77.053
	v28.662h87.192v42.582H294.53z"/>
<path style="fill:#D33333;" d="M346.592,380.558c-7.006,6.245-14.671,11.882-28.51,11.882c-31.044,0-31.044-28.388-62.089-28.388
	c-31.055,0-31.055,28.388-62.099,28.388c-16.354,0-24.089-7.868-32.291-15.33c-0.487-3.873-0.73-7.827-0.73-11.832
	c0-38.821,23.258-72.207,56.604-86.999C217.476,278.28,217.121,375.52,346.592,380.558z"/>
<path d="M7.604,371.658c12.572,0,18.46,5.385,25.917,12.202c8.298,7.587,17.703,16.186,36.179,16.186
	c18.477,0,27.882-8.599,36.181-16.186c7.456-6.817,13.345-12.202,25.917-12.202s18.461,5.385,25.918,12.202
	c8.298,7.587,17.703,16.186,36.18,16.186c18.476,0,27.881-8.599,36.179-16.186c7.456-6.817,13.345-12.202,25.917-12.202
	c12.572,0,18.461,5.385,25.918,12.202c8.298,7.587,17.703,16.186,36.181,16.186s27.882-8.599,36.181-16.185
	c7.456-6.818,13.346-12.203,25.919-12.203s18.463,5.385,25.92,12.203c8.299,7.587,17.705,16.185,36.183,16.185
	c18.479,0,27.883-8.599,36.183-16.185c7.457-6.818,13.348-12.203,25.92-12.203c4.2,0,7.604-3.405,7.604-7.604
	c0-4.199-3.404-7.604-7.604-7.604c-18.479,0-27.883,8.599-36.183,16.185c-7.457,6.818-13.348,12.203-25.92,12.203
	s-18.463-5.385-25.92-12.203c-8.299-7.587-17.704-16.185-36.183-16.185c-9.042,0-15.903,2.066-21.533,5.058
	c-1.373-37.436-23.101-71.224-56.523-88.041v-24.124h79.588c4.2,0,7.604-3.405,7.604-7.604v-42.582c0-4.199-3.404-7.604-7.604-7.604
	h-79.588v-22.457h79.588c4.2,0,7.604-3.405,7.604-7.604V118.91c0-4.199-3.404-7.604-7.604-7.604h-79.588V88.849h79.588
	c4.2,0,7.604-3.405,7.604-7.604V38.663c0-4.199-3.404-7.604-7.604-7.604h-79.588V10.002c0-4.199-3.404-7.604-7.604-7.604h-77.053
	c-4.199,0-7.604,3.405-7.604,7.604v100.866c0,4.199,3.405,7.604,7.604,7.604s7.604-3.405,7.604-7.604V17.606h61.846v21.058
	c0,4.199,3.404,7.604,7.604,7.604h79.588v27.374h-79.588c-4.2,0-7.604,3.405-7.604,7.604v37.665c0,4.199,3.404,7.604,7.604,7.604
	h79.588v27.374h-79.588c-4.2,0-7.604,3.405-7.604,7.604v37.665c0,4.199,3.404,7.604,7.604,7.604h79.588v27.374h-79.588
	c-4.2,0-7.604,3.405-7.604,7.604v36.54c0,3.006,1.771,5.731,4.52,6.95c31.633,14.037,52.074,45.457,52.074,80.049
	c0,2.735-0.127,5.465-0.374,8.144c-7.06,6.438-12.974,11.415-25.056,11.415c-12.572,0-18.462-5.385-25.918-12.202
	c-8.298-7.587-17.703-16.186-36.18-16.186s-27.881,8.6-36.18,16.186c-7.456,6.817-13.345,12.202-25.916,12.202
	c-12.076,0-17.99-4.972-25.045-11.406c-0.248-2.68-0.374-5.411-0.374-8.152c0-34.593,20.445-66.014,52.083-80.048
	c2.749-1.22,4.521-3.944,4.521-6.951V136.215c0-4.199-3.405-7.604-7.604-7.604s-7.604,3.405-7.604,7.604v137.253
	c-33.429,16.815-55.161,50.606-56.533,88.046c-5.632-2.995-12.495-5.062-21.542-5.062c-18.477,0-27.881,8.599-36.18,16.186
	c-7.456,6.817-13.346,12.202-25.918,12.202c-12.571,0-18.46-5.385-25.916-12.202c-8.3-7.588-17.704-16.187-36.181-16.187
	c-4.199,0-7.604,3.405-7.604,7.604C0,368.253,3.405,371.658,7.604,371.658z"/>
<path d="M504.396,411.229c-18.479,0-27.883,8.599-36.183,16.186c-7.457,6.817-13.348,12.202-25.92,12.202
	c-12.573,0-18.463-5.385-25.92-12.202c-8.299-7.587-17.704-16.186-36.183-16.186c-18.479,0-27.884,8.6-36.183,16.187
	c-0.571,0.523-1.143,1.045-1.717,1.564c-3.115,2.817-3.357,7.625-0.54,10.74c2.817,3.116,7.625,3.357,10.741,0.541
	c0.595-0.538,1.187-1.08,1.78-1.622c7.456-6.818,13.345-12.203,25.919-12.203c12.573,0,18.463,5.385,25.92,12.202
	c8.299,7.587,17.704,16.186,36.183,16.186c18.479,0,27.883-8.599,36.183-16.186c7.457-6.817,13.347-12.202,25.92-12.202
	c4.2,0,7.604-3.405,7.604-7.604C512,414.633,508.596,411.229,504.396,411.229z"/>
<path d="M7.604,426.437c12.572,0,18.46,5.385,25.917,12.202c8.298,7.587,17.703,16.186,36.179,16.186
	c18.477,0,27.882-8.599,36.181-16.186c7.456-6.817,13.345-12.202,25.917-12.202s18.461,5.385,25.917,12.202
	c8.298,7.587,17.703,16.186,36.181,16.186c18.476,0,27.881-8.599,36.179-16.186c7.456-6.817,13.345-12.202,25.917-12.202
	c12.573,0,18.461,5.385,25.918,12.202c8.298,7.587,17.703,16.186,36.181,16.186c4.2,0,7.604-3.405,7.604-7.604
	c0-4.199-3.404-7.604-7.604-7.604c-12.572,0-18.462-5.385-25.918-12.202c-8.298-7.587-17.703-16.186-36.18-16.186
	s-27.881,8.6-36.18,16.186c-7.456,6.817-13.345,12.202-25.916,12.202c-12.572,0-18.461-5.385-25.917-12.202
	c-8.298-7.587-17.703-16.186-36.181-16.186s-27.881,8.599-36.18,16.186c-7.456,6.817-13.346,12.202-25.918,12.202
	c-12.571,0-18.46-5.385-25.916-12.202c-8.3-7.587-17.704-16.186-36.181-16.186c-4.199,0-7.604,3.405-7.604,7.604
	C0,423.032,3.405,426.437,7.604,426.437z"/>
<path d="M504.396,466.007c-18.479,0-27.883,8.599-36.183,16.185c-7.457,6.818-13.348,12.203-25.92,12.203
	c-12.573,0-18.463-5.385-25.92-12.203c-8.299-7.587-17.704-16.185-36.183-16.185c-18.478,0-27.883,8.599-36.182,16.186
	c-7.456,6.817-13.346,12.202-25.918,12.202c-12.572,0-18.462-5.385-25.918-12.202c-8.298-7.587-17.703-16.186-36.18-16.186
	s-27.881,8.6-36.18,16.186c-7.456,6.817-13.345,12.202-25.916,12.202c-12.572,0-18.461-5.385-25.917-12.202
	c-8.298-7.587-17.703-16.186-36.181-16.186s-27.881,8.599-36.18,16.186c-7.456,6.817-13.346,12.202-25.918,12.202
	c-12.571,0-18.46-5.385-25.916-12.202c-8.298-7.587-17.703-16.186-36.18-16.186c-4.199,0-7.604,3.405-7.604,7.604
	c0,4.199,3.405,7.604,7.604,7.604c12.572,0,18.46,5.385,25.917,12.202c8.298,7.587,17.703,16.186,36.179,16.186
	c18.477,0,27.882-8.599,36.181-16.186c7.456-6.817,13.345-12.202,25.917-12.202s18.461,5.385,25.918,12.202
	c8.298,7.587,17.703,16.186,36.18,16.186c18.476,0,27.881-8.599,36.179-16.186c7.456-6.817,13.345-12.202,25.917-12.202
	c12.572,0,18.461,5.385,25.918,12.202c8.298,7.587,17.703,16.186,36.181,16.186s27.882-8.599,36.181-16.185
	c7.456-6.818,13.346-12.203,25.919-12.203s18.463,5.385,25.92,12.203c8.299,7.587,17.705,16.185,36.183,16.185
	c18.479,0,27.883-8.599,36.183-16.185c7.457-6.818,13.348-12.203,25.92-12.203c4.2,0,7.604-3.405,7.604-7.604
	C512.001,469.411,508.596,466.007,504.396,466.007z"/>
<g>
</g>
<g>
</g>
<g>
</g>
<g>
</g>
<g>
</g>
<g>
</g>
<g>
</g>
<g>
</g>
<g>
</g>
<g>
</g>
<g>
</g>
<g>
</g>
<g>
</g>
<g>
</g>
<g>
</g>
</svg>
